<?xml version="1.0" encoding="utf-8"?>
<!-- Generator: Adobe Illustrator 18.0.0, SVG Export Plug-In . SVG Version: 6.00 Build 0)  -->
<!DOCTYPE svg PUBLIC "-//W3C//DTD SVG 1.1//EN" "http://www.w3.org/Graphics/SVG/1.1/DTD/svg11.dtd">
<svg version="1.1" id="Layer_2" xmlns="http://www.w3.org/2000/svg" xmlns:xlink="http://www.w3.org/1999/xlink" x="0px" y="0px"
	 viewBox="0 0 353.6 30" enable-background="new 0 0 353.6 30" xml:space="preserve">
<g>
	<path fill="#777777" d="M184.1,19.1c1.7,0,3.1-1.5,3.1-3.9c0-2.4-1.3-3.9-3.1-3.9c-1.6,0-3.2,1.2-3.2,3.9
		C181,17.2,182,19.1,184.1,19.1z"/>
	<path fill="#777777" d="M188.9,0c-8.3,0-15,6.7-15,15c0,4.8,2.3,9.1,5.8,11.9l0-15c0-0.3-0.2-0.4-0.4-0.4h-0.8v-1.1h1.3
		c0.8,0,1.2,0.3,1.2,1c0,0.4,0,0.7,0,0.7h0c0,0,0.8-1.9,3.4-1.9c2.6,0,4.2,2.1,4.2,5.1c0,3.1-1.8,5.1-4.4,5.1
		c-2.4,0-3.2-1.8-3.2-1.8h0c0,0,0,0.3,0,0.9l0,8.5c2.3,1.4,5,2.2,7.9,2.2c6.5,0,12-4.1,14.1-9.9h-4.6c-0.8,0-1.2-0.3-1.2-1.2v-4.7
		c0-1.5-0.2-2.9-2.1-2.9c-1.6,0-3.1,1.1-3.5,2.8c-0.1,0.4-0.2,0.8-0.2,1.3v4.7h-1.3V7.5c0-0.3-0.2-0.4-0.4-0.4h-0.8V5.9h1.4
		c0.8,0,1.2,0.3,1.2,1.1v4.7c0,0.4,0,0.8,0,0.8h0c0.4-0.9,1.7-2.4,3.9-2.4c2.4,0,3.3,1.4,3.3,3.8v4.6c0,0.3,0.2,0.4,0.4,0.4l4.4,0
		c0.3-1.3,0.5-2.6,0.5-3.9C203.9,6.7,197.1,0,188.9,0z"/>
	<path fill="#777777" d="M6.4,8.8c-2.7,0-3.6,2-3.6,2h0c0,0,0-0.4,0-0.9V6.1c0-0.9-0.4-1.3-1.3-1.3H0V6h0.9c0.3,0,0.5,0.2,0.5,0.5
		v13.1h1.4v-0.9c0-0.5,0-0.9,0-0.9h0c0,0,0.9,2,3.5,2c2.8,0,4.8-2.2,4.8-5.5C11,11,9.2,8.8,6.4,8.8z M6.1,18.6
		c-2.3,0-3.4-2.1-3.4-4.3c0-3,1.7-4.3,3.4-4.3c2,0,3.3,1.7,3.3,4.3C9.5,17,8,18.6,6.1,18.6z"/>
	<path fill="#777777" d="M14.9,11.7L14.9,11.7c0,0,0-0.4,0-0.8v-0.7c0-0.8-0.4-1.2-1.3-1.2h-1.5v1.2H13c0.3,0,0.5,0.2,0.5,0.5v8.9
		h1.4v-4.5c0-0.7,0.1-1.4,0.3-2.1c0.5-1.6,1.6-2.7,3.1-2.7c0.3,0,0.5,0,0.5,0V9c0,0-0.3-0.1-0.6-0.1C16.6,8.9,15.4,10.1,14.9,11.7z"
		/>
	<path fill="#777777" d="M25,8.8c-3.1,0-5.6,2.4-5.6,5.5c0,3.2,2.5,5.6,5.6,5.6c3.1,0,5.6-2.4,5.6-5.6C30.6,11.1,28.1,8.8,25,8.8z
		 M25,18.6c-2.3,0-4.1-1.9-4.1-4.3c0-2.4,1.9-4.2,4.1-4.2c2.3,0,4.1,1.8,4.1,4.2C29.1,16.7,27.3,18.6,25,18.6z"/>
	<path fill="#777777" d="M42.1,17.9V9h-1.4v5.1c0,2.3-1.5,4.4-3.9,4.4c-2,0-2.3-1.5-2.3-3.1v-5.1C34.4,9.4,34,9,33.1,9h-1.5v1.2h0.9
		c0.3,0,0.5,0.2,0.5,0.5v5c0,2.8,1.1,4.1,3.6,4.1c2.3,0,3.7-1.6,4.1-2.7h0c0,0,0,0.3,0,0.8v0.5c0,0.8,0.4,1.2,1.3,1.2h1.5v-1.2h-0.9
		C42.2,18.4,42.1,18.2,42.1,17.9z"/>
	<path fill="#777777" d="M52.7,10.2c0,0.2,0,0.4,0,0.4h0c0,0-0.7-1.8-3.5-1.8s-4.6,2.2-4.6,5.3c0,3.2,1.9,5.4,4.7,5.4
		c1.6,0,2.7-0.7,3.3-1.8h0c0,0,0,0.4,0,0.8v0.9c0,2.4-1.6,3.3-3.7,3.3C47.3,22.7,46,22,46,22l-0.5,1.2c1,0.5,2.3,0.8,3.5,0.8
		c2.6,0,5.1-1.3,5.1-4.7v-8.6c0-0.3,0.2-0.5,0.5-0.5h0.9V9h-1.5C53,9,52.7,9.4,52.7,10.2z M49.4,18.3c-2.1,0-3.5-1.6-3.5-4.2
		c0-2.5,1.2-4,3.3-4c1.9,0,3.3,0.9,3.3,4C52.6,17.2,51.1,18.3,49.4,18.3z"/>
	<path fill="#777777" d="M66.5,17.9v-5c0-2.6-0.9-4.1-3.6-4.1c-2.4,0-3.8,1.6-4.2,2.6h0c0,0,0-0.4,0-0.9V6c0-0.9-0.4-1.2-1.3-1.2H56
		V6h0.9c0.3,0,0.5,0.2,0.5,0.5v13.1h1.4v-5.1c0-0.5,0-1,0.2-1.4c0.5-1.8,2-3,3.8-3c2.1,0,2.3,1.5,2.3,3.1v5.1c0,0.9,0.4,1.3,1.3,1.3
		h1.5v-1.2H67C66.7,18.4,66.5,18.2,66.5,17.9z"/>
	<path fill="#777777" d="M71.5,15.6v-5.4h2.7V9h-2.7V6.1H70V9h-1.4v1.2H70v5.5c0,3.5,2.5,3.9,3.7,3.9c0.4,0,0.6,0,0.6,0v-1.3
		c0,0-0.2,0-0.5,0C73,18.4,71.5,18.1,71.5,15.6z"/>
	<path fill="#777777" d="M83.7,15.6v-5.4h2.7V9h-2.7V6.1h-1.4V9h-1.4v1.2h1.4v5.5c0,3.5,2.5,3.9,3.7,3.9c0.4,0,0.6,0,0.6,0v-1.3
		c0,0-0.2,0-0.5,0C85.3,18.4,83.7,18.1,83.7,15.6z"/>
	<path fill="#777777" d="M93.4,8.8c-3.1,0-5.6,2.4-5.6,5.5c0,3.2,2.5,5.6,5.6,5.6c3.1,0,5.6-2.4,5.6-5.6C99,11.1,96.4,8.8,93.4,8.8z
		 M93.4,18.6c-2.3,0-4.1-1.9-4.1-4.3c0-2.4,1.9-4.2,4.1-4.2c2.3,0,4.1,1.8,4.1,4.2C97.5,16.7,95.6,18.6,93.4,18.6z"/>
	<path fill="#777777" d="M113.7,10.2l-2.6,6.6c-0.2,0.5-0.4,1.1-0.4,1.1h0c0,0-0.2-0.6-0.4-1.1l-2.7-6.6C107.3,9.2,107,9,106,9h-0.7
		v1.2h0.2c0.4,0,0.6,0.1,0.7,0.5l3.7,8.8l-0.6,1.5c-0.4,1-1,1.7-2,1.7c-0.9,0-1.6-0.8-1.6-0.8l-0.7,1.1c0,0,0.8,1,2.3,1
		c1.4,0,2.5-0.9,3-2.2l4.6-11.1c0.1-0.4,0.4-0.5,0.7-0.5h0.2V9h-0.7C114.4,9,114.1,9.2,113.7,10.2z"/>
	<path fill="#777777" d="M122.3,8.8c-3.1,0-5.6,2.4-5.6,5.5c0,3.2,2.5,5.6,5.6,5.6c3.1,0,5.6-2.4,5.6-5.6
		C127.9,11.1,125.4,8.8,122.3,8.8z M122.4,18.6c-2.3,0-4.1-1.9-4.1-4.3c0-2.4,1.9-4.2,4.1-4.2c2.3,0,4.1,1.8,4.1,4.2
		C126.5,16.7,124.6,18.6,122.4,18.6z"/>
	<path fill="#777777" d="M139.4,17.9V9H138v5.1c0,2.3-1.5,4.4-3.9,4.4c-2,0-2.3-1.5-2.3-3.1v-5.1c0-0.9-0.4-1.2-1.3-1.2H129v1.2h0.9
		c0.3,0,0.5,0.2,0.5,0.5v5c0,2.8,1.1,4.1,3.6,4.1c2.3,0,3.7-1.6,4.1-2.7h0c0,0,0,0.3,0,0.8v0.5c0,0.8,0.4,1.2,1.3,1.2h1.5v-1.2h-0.9
		C139.6,18.4,139.4,18.2,139.4,17.9z"/>
	<path fill="#777777" d="M153.2,8.8c-2.7,0-3.6,2-3.6,2h0c0,0,0-0.4,0-0.9V6.1c0-0.9-0.4-1.3-1.3-1.3h-1.5V6h0.9
		c0.3,0,0.5,0.2,0.5,0.5v13.1h1.4v-0.9c0-0.5,0-0.9,0-0.9h0c0,0,0.9,2,3.5,2c2.8,0,4.8-2.2,4.8-5.5C157.9,11,156.1,8.8,153.2,8.8z
		 M153,18.6c-2.3,0-3.4-2.1-3.4-4.3c0-3,1.7-4.3,3.4-4.3c2,0,3.3,1.7,3.3,4.3C156.4,17,154.8,18.6,153,18.6z"/>
	<path fill="#777777" d="M167,10.2l-2.6,6.6c-0.2,0.5-0.4,1.1-0.4,1.1h0c0,0-0.2-0.6-0.4-1.1l-2.7-6.6c-0.4-0.9-0.7-1.2-1.6-1.2
		h-0.7v1.2h0.2c0.4,0,0.6,0.1,0.7,0.5l3.7,8.8l-0.6,1.5c-0.4,1-1,1.7-2,1.7c-0.9,0-1.6-0.8-1.6-0.8l-0.7,1.1c0,0,0.8,1,2.3,1
		c1.4,0,2.5-0.9,3-2.2l4.6-11.1c0.1-0.4,0.4-0.5,0.7-0.5h0.2V9h-0.7C167.7,9,167.4,9.2,167,10.2z"/>
	<path fill="#777777" d="M214.6,8.8c-2.8,0-3.6,2.1-3.6,2.1h0c0,0,0-0.3,0-0.7c0-0.7-0.4-1.1-1.3-1.1h-1.5v1.2h0.9
		c0.3,0,0.5,0.2,0.5,0.5v13.1h1.4v-5c0-0.5,0-0.9,0-0.9h0c0,0,0.9,2,3.5,2c2.7,0,4.7-2.2,4.7-5.5C219.2,11,217.4,8.8,214.6,8.8z
		 M214.3,18.6c-2.2,0-3.4-2.1-3.4-4.3c0-3,1.7-4.3,3.4-4.3c2,0,3.3,1.7,3.3,4.3C217.7,17,216.2,18.6,214.3,18.6z"/>
	<path fill="#777777" d="M230.7,17.9V9h-1.4v5.1c0,2.3-1.5,4.4-3.9,4.4c-2,0-2.3-1.5-2.3-3.1v-5.1c0-0.9-0.4-1.2-1.3-1.2h-1.5v1.2
		h0.9c0.3,0,0.5,0.2,0.5,0.5v5c0,2.8,1.1,4.1,3.6,4.1c2.3,0,3.7-1.6,4.1-2.7h0c0,0,0,0.3,0,0.8v0.5c0,0.8,0.4,1.2,1.3,1.2h1.5v-1.2
		h-0.9C230.8,18.4,230.7,18.2,230.7,17.9z"/>
	<path fill="#777777" d="M235.5,11.7L235.5,11.7c0,0,0-0.4,0-0.8v-0.7c0-0.8-0.4-1.2-1.3-1.2h-1.5v1.2h0.9c0.3,0,0.5,0.2,0.5,0.5
		v8.9h1.4v-4.5c0-0.7,0.1-1.4,0.3-2.1c0.5-1.6,1.6-2.7,3.1-2.7c0.3,0,0.5,0,0.5,0V9c0,0-0.3-0.1-0.6-0.1
		C237.2,8.9,236,10.1,235.5,11.7z"/>
	<path fill="#777777" d="M245.3,8.8c-2.8,0-5.2,2.1-5.2,5.6c0,3.3,2.4,5.5,5.5,5.5c2.4,0,3.9-1.5,3.9-1.5l-0.7-1.1
		c0,0-1.2,1.3-3.2,1.3c-2.2,0-4.1-1.5-4.1-4.2h8.1c0,0,0-0.5,0-0.7C249.7,11,248.2,8.8,245.3,8.8z M241.6,13.2
		c0.4-2.1,1.9-3.3,3.6-3.3c1.6,0,2.9,1.1,3,3.3H241.6z"/>
	<path fill="#777777" d="M261.8,17.4v-4.6c0-2.7-1.1-4.1-3.6-4.1c-2.1,0-3.5,1.3-4,2.4h0c0,0,0-0.4,0-0.9V6c0-0.9-0.4-1.3-1.3-1.3
		h-2v1.7h0.9c0.3,0,0.5,0.1,0.5,0.5v12.7h2v-5c0-0.5,0-1,0.2-1.4c0.4-1.5,1.7-2.6,3.4-2.6c1.7,0,2,1.2,2,2.7v5
		c0,0.9,0.4,1.3,1.3,1.3h2v-1.7h-0.9C262,17.9,261.8,17.7,261.8,17.4z"/>
	<path fill="#777777" d="M269.8,8.7c-3.2,0-5.7,2.3-5.7,5.6c0,3.2,2.5,5.6,5.7,5.6c3.2,0,5.7-2.4,5.7-5.6
		C275.6,11,273,8.7,269.8,8.7z M269.8,18.1c-2,0-3.6-1.6-3.6-3.8c0-2.2,1.6-3.8,3.6-3.8c2,0,3.7,1.6,3.7,3.8
		C273.5,16.5,271.8,18.1,269.8,18.1z"/>
	<path fill="#777777" d="M294.1,17.4v-4.6c0-2.7-1.1-4.1-3.5-4.1c-1.7,0-3.2,1.1-3.8,2.4h0c-0.4-1.6-1.4-2.4-3.2-2.4
		c-1.7,0-3.1,1.2-3.6,2.4h0c0,0,0-0.3,0-0.6v-0.4c0-0.8-0.4-1.2-1.3-1.2h-2v1.7h0.9c0.3,0,0.5,0.1,0.5,0.5v8.4h2v-4.9
		c0-0.5,0-0.9,0.1-1.4c0.4-1.5,1.5-2.8,3.1-2.8c1.6,0,1.8,1.3,1.8,2.7v6.4h2v-4.9c0-0.5,0.1-1,0.2-1.5c0.4-1.5,1.5-2.7,3-2.7
		c1.6,0,1.9,1.2,1.9,2.7v5c0,0.9,0.4,1.3,1.3,1.3h2v-1.7h-0.9C294.2,17.9,294.1,17.7,294.1,17.4z"/>
	<path fill="#777777" d="M301.7,8.7c-3,0-5.3,2.2-5.3,5.6c0,3.2,2.3,5.6,5.7,5.6c2.5,0,4.1-1.6,4.1-1.6l-0.9-1.5
		c0,0-1.3,1.2-3.1,1.2c-1.9,0-3.5-1.3-3.7-3.6h7.8c0,0,0.1-0.6,0.1-0.8C306.3,10.9,304.7,8.7,301.7,8.7z M298.5,13
		c0.3-1.8,1.6-2.7,3.1-2.7c1.3,0,2.4,0.9,2.5,2.7H298.5z"/>
	<rect x="308.4" y="17.9" fill="#777777" width="1.6" height="1.7"/>
	<path fill="#777777" d="M317.4,18.6c-2.2,0-4.1-1.6-4.1-4.2c0-2.6,1.8-4.3,4.1-4.3c0.9,0,2.4,0.4,2.4,1.3V12h1.3V11
		c0-1.7-2.6-2.3-3.8-2.3c-3.2,0-5.6,2.3-5.6,5.6c0,3.3,2.4,5.5,5.6,5.5c2.7,0,4.1-1.7,4.1-1.7l-0.7-1.1
		C320.8,17.1,319.6,18.6,317.4,18.6z"/>
	<path fill="#777777" d="M328.2,8.8c-3.1,0-5.6,2.4-5.6,5.5c0,3.2,2.5,5.6,5.6,5.6c3.1,0,5.6-2.4,5.6-5.6
		C333.8,11.1,331.3,8.8,328.2,8.8z M328.2,18.6c-2.3,0-4.1-1.9-4.1-4.3c0-2.4,1.9-4.2,4.1-4.2c2.3,0,4.1,1.8,4.1,4.2
		C332.3,16.7,330.5,18.6,328.2,18.6z"/>
	<path fill="#777777" d="M352.7,18.4c-0.3,0-0.5-0.1-0.5-0.5v-5c0-2.6-0.9-4.1-3.5-4.1c-1.8,0-3.3,1.2-3.9,2.7h0
		c-0.3-1.7-1.3-2.7-3.3-2.7c-1.6,0-3.3,1.2-3.8,2.7h0c0,0,0-0.3,0-0.8v-0.5c0-0.8-0.4-1.2-1.3-1.2h-1.5v1.2h0.9
		c0.3,0,0.5,0.2,0.5,0.5v8.9h1.4v-5c0-0.5,0-1,0.2-1.4c0.4-1.6,1.7-3.1,3.5-3.1c2,0,2.2,1.6,2.2,3.2v6.4h1.4v-5c0-0.6,0-1.1,0.2-1.5
		c0.4-1.6,1.7-3,3.3-3c1.9,0,2.3,1.4,2.3,3.2v5.1c0,0.9,0.4,1.3,1.3,1.3h1.5v-1.2H352.7z"/>
</g>
</svg>
