<?xml version="1.0" encoding="utf-8"?>
<!-- Generator: Adobe Illustrator 18.0.0, SVG Export Plug-In . SVG Version: 6.00 Build 0)  -->
<!DOCTYPE svg PUBLIC "-//W3C//DTD SVG 1.1//EN" "http://www.w3.org/Graphics/SVG/1.1/DTD/svg11.dtd">
<svg version="1.1" id="Layer_1" xmlns="http://www.w3.org/2000/svg" xmlns:xlink="http://www.w3.org/1999/xlink" x="0px" y="0px"
	 viewBox="0 0 640.2 120.9" enable-background="new 0 0 640.2 120.9" xml:space="preserve">
<g>
	<path fill="#FFFFFF" d="M20.5,74.3c-0.7-0.5-1.4-0.9-2.1-1.3c-0.7-0.3-1.5-0.6-2.4-0.8c-0.8-0.2-1.8-0.3-2.8-0.4
		c-1-0.1-2.1-0.1-3.4-0.1H0v42.5h1.7V98.4h8.2c4.9,0,8.7-1.1,11.2-3.4c2.5-2.2,3.8-6,3.8-11.2c0-2-0.4-3.8-1.2-5.5
		C22.8,76.6,21.8,75.2,20.5,74.3z M19.9,93.9c-2.1,2-5.4,3-10,3H1.7V73.3h8.2c1.2,0,2.2,0,3.2,0.1c0.9,0.1,1.8,0.2,2.5,0.4
		c0.7,0.2,1.4,0.4,2.1,0.7c0.6,0.3,1.3,0.7,1.9,1.1c1,0.8,1.9,1.9,2.5,3.4c0.7,1.5,1,3.1,1,4.8C23.1,88.6,22,92,19.9,93.9z"/>
	<path fill="#FFFFFF" d="M58.4,78c-0.5-1-1.2-1.9-1.9-2.6c-0.7-0.8-1.5-1.4-2.4-1.8c-0.5-0.3-1.1-0.5-1.8-0.7
		c-0.6-0.2-1.4-0.4-2.2-0.6c-0.9-0.2-1.9-0.3-3.1-0.3c-1.2-0.1-2.6-0.1-4.3-0.1H33v42.5h1.7V96.7V73.3h8c1.3,0,2.4,0,3.4,0
		c1,0,2,0.1,2.8,0.2c0.9,0.1,1.7,0.3,2.4,0.5c0.7,0.2,1.4,0.6,2.1,1c1.6,1.1,2.9,2.5,3.8,4.4c0.9,1.8,1.3,3.7,1.3,5.5
		c0,1.7-0.3,3.3-0.8,4.7c-0.5,1.5-1.5,2.9-2.8,4.3c-0.7,0.6-1.4,1-2.1,1.4c-0.7,0.4-1.4,0.6-2.2,0.8c-0.7,0.2-1.5,0.3-2.4,0.4
		c-0.8,0.1-1.8,0.1-2.8,0.1H34.8l20.5,17.6h2.2l-18.4-16l8.6-0.1c2.3,0,4.2-0.4,5.8-1.3c1.6-0.9,2.9-2,3.9-3.2
		c1-1.3,1.7-2.7,2.2-4.2c0.5-1.5,0.7-2.9,0.7-4.3v-0.3c0-1.2-0.2-2.4-0.5-3.6C59.3,80.1,58.9,79,58.4,78z"/>
	<path fill="#FFFFFF" d="M106.4,77.2c-2-2-4.4-3.5-7-4.6c-2.7-1.1-5.5-1.6-8.6-1.6c-3.1,0-5.9,0.5-8.6,1.6c-2.7,1.1-5,2.6-7,4.6
		c-2,2-3.6,4.3-4.7,7c-1.1,2.7-1.7,5.6-1.7,8.8c0,3.2,0.6,6.1,1.7,8.8c1.1,2.7,2.7,5,4.7,7c2,2,4.3,3.5,7,4.6
		c2.7,1.1,5.5,1.6,8.6,1.6c3,0,5.9-0.5,8.6-1.6c2.7-1.1,5-2.6,7-4.6c2-2,3.6-4.3,4.7-7c1.1-2.7,1.7-5.6,1.7-8.8
		c0-3.2-0.6-6.1-1.7-8.8C110,81.5,108.4,79.2,106.4,77.2z M109.5,101.2c-1.1,2.5-2.5,4.6-4.4,6.5c-1.8,1.8-4,3.2-6.5,4.3
		c-2.5,1-5.1,1.6-7.9,1.6c-2.8,0-5.5-0.5-8-1.6c-2.5-1-4.6-2.5-6.5-4.3c-1.8-1.8-3.3-4-4.3-6.5C71,98.7,70.4,96,70.4,93
		c0-2.9,0.5-5.7,1.6-8.2c1.1-2.5,2.5-4.6,4.3-6.5c1.8-1.8,4-3.2,6.5-4.3c2.5-1,5.1-1.6,8-1.6c2.8,0,5.4,0.5,7.9,1.6
		c2.5,1,4.6,2.5,6.5,4.3c1.8,1.8,3.3,4,4.4,6.5c1.1,2.5,1.6,5.2,1.6,8.2C111.1,96,110.6,98.7,109.5,101.2z"/>
	<path fill="#FFFFFF" d="M133.3,102.1c0,1.3-0.1,2.4-0.2,3.4c-0.1,1-0.4,2-0.7,3c-0.4,1.2-1.4,2.4-2.9,3.6
		c-1.5,1.2-5.4,1.7-11.7,1.4h-0.1v1.6c5.4,0.2,8.7,0.1,9.9-0.4c1.2-0.4,2.3-1,3.2-1.6c0.9-0.7,1.6-1.3,2-2c0.5-0.7,0.8-1.3,1.1-2
		c0.5-1.2,0.8-2.5,0.9-3.7c0.1-1.2,0.1-2.3,0.1-3.3V71.8h-1.7V102.1z"/>
	<polygon fill="#FFFFFF" points="145.2,114.3 168.6,114.3 168.6,112.7 147,112.7 147,93.7 158,93.7 158,92.1 147,92.1 147,73.3 
		168.6,73.3 168.6,71.8 145.2,71.8 	"/>
	<path fill="#FFFFFF" d="M197.7,71c-3.1,0-5.9,0.5-8.6,1.6c-2.7,1.1-5,2.6-7,4.6c-2,2-3.6,4.3-4.7,7c-1.1,2.7-1.7,5.6-1.7,8.8
		c0,3.2,0.6,6.1,1.7,8.8c1.1,2.7,2.7,5,4.7,7c2,2,4.3,3.5,7,4.6c2.7,1.1,5.5,1.6,8.6,1.6c1.3,0,2.5-0.1,3.8-0.3
		c1.3-0.2,2.4-0.6,3.4-1.2v-1.9c-1.1,0.8-2.2,1.3-3.3,1.6c-1.1,0.2-2.4,0.3-3.9,0.3c-2.8,0-5.5-0.5-8-1.6c-2.5-1-4.6-2.5-6.5-4.3
		c-1.8-1.8-3.3-4-4.3-6.5c-1.1-2.5-1.6-5.2-1.6-8.2c0-2.9,0.5-5.7,1.6-8.2c1.1-2.5,2.5-4.6,4.3-6.5c1.8-1.8,4-3.2,6.5-4.3
		c2.5-1,5.1-1.6,8-1.6c1.5,0,2.8,0.1,3.9,0.4c1.2,0.3,2.2,0.9,3.2,2v-2.2c-0.8-0.6-1.8-1-3.2-1.3C200.3,71.2,199,71,197.7,71z"/>
	<polygon fill="#FFFFFF" points="211.1,73.3 222.7,73.3 222.7,114.3 224.4,114.3 224.4,73.3 235.9,73.3 235.9,71.8 211.1,71.8 	"/>
	<path fill="#FFFFFF" d="M336.9,77.4c-1.8-1.8-4.1-3.2-6.8-4.2c-2.7-1-5.7-1.4-9-1.4h-12v42.5h12c3.3,0,6.3-0.5,9-1.4
		c2.7-1,4.9-2.3,6.8-4.2c1.8-1.8,3.2-4,4.2-6.7c1-2.6,1.5-5.6,1.5-9c0-3.3-0.5-6.3-1.5-9C340.1,81.4,338.7,79.2,336.9,77.4z
		 M339.5,101.4c-0.9,2.4-2.2,4.5-3.9,6.2c-1.7,1.7-3.8,3-6.2,3.8c-2.4,0.9-5.2,1.3-8.2,1.3h-10.3V73.3h10.3c3.1,0,5.9,0.5,8.3,1.4
		c2.5,0.9,4.5,2.2,6.2,3.9c1.7,1.7,3,3.8,3.8,6.2c0.9,2.5,1.3,5.2,1.3,8.3C340.8,96.2,340.4,99,339.5,101.4z"/>
	<path fill="#FFFFFF" d="M389,77.2c-2-2-4.4-3.5-7-4.6c-2.7-1.1-5.5-1.6-8.6-1.6c-3.1,0-5.9,0.5-8.6,1.6c-2.7,1.1-5,2.6-7,4.6
		c-2,2-3.6,4.3-4.7,7c-1.1,2.7-1.7,5.6-1.7,8.8c0,3.2,0.6,6.1,1.7,8.8c1.1,2.7,2.7,5,4.7,7c2,2,4.3,3.5,7,4.6
		c2.7,1.1,5.5,1.6,8.6,1.6c3,0,5.9-0.5,8.6-1.6c2.7-1.1,5-2.6,7-4.6c2-2,3.6-4.3,4.7-7c1.1-2.7,1.7-5.6,1.7-8.8
		c0-3.2-0.6-6.1-1.7-8.8C392.6,81.5,391,79.2,389,77.2z M392.1,101.2c-1.1,2.5-2.5,4.6-4.4,6.5c-1.8,1.8-4,3.2-6.5,4.3
		c-2.5,1-5.1,1.6-7.9,1.6c-2.8,0-5.5-0.5-8-1.6c-2.5-1-4.6-2.5-6.5-4.3c-1.8-1.8-3.3-4-4.3-6.5c-1.1-2.5-1.6-5.2-1.6-8.2
		c0-2.9,0.5-5.7,1.6-8.2c1.1-2.5,2.5-4.6,4.3-6.5c1.8-1.8,4-3.2,6.5-4.3c2.5-1,5.1-1.6,8-1.6c2.8,0,5.4,0.5,7.9,1.6
		c2.5,1,4.6,2.5,6.5,4.3c1.8,1.8,3.3,4,4.4,6.5c1.1,2.5,1.6,5.2,1.6,8.2C393.8,96,393.2,98.7,392.1,101.2z"/>
	<polygon fill="#FFFFFF" points="427.4,111.5 407.7,71.8 405,71.8 405,114.3 406.7,114.3 406.7,73.5 406.8,73.5 426.8,114.3 
		427.8,114.3 447.8,73.5 447.9,73.5 447.9,114.3 449.7,114.3 449.7,71.8 447,71.8 	"/>
	<rect x="459.9" y="71.8" fill="#FFFFFF" width="1.7" height="42.5"/>
	<polygon fill="#FFFFFF" points="504.2,112 504.1,112 475,71.8 472.4,71.8 472.4,114.3 474.1,114.3 474.1,73.5 474.2,73.5 
		503.8,114.3 506,114.3 506,71.8 504.2,71.8 	"/>
	<rect x="516.2" y="71.8" fill="#FFFFFF" width="1.7" height="42.5"/>
	<path fill="#FFFFFF" d="M565.3,77.2c-2-2-4.4-3.5-7-4.6c-2.7-1.1-5.5-1.6-8.6-1.6c-3.1,0-5.9,0.5-8.6,1.6c-2.7,1.1-5,2.6-7,4.6
		c-2,2-3.6,4.3-4.7,7c-1.1,2.7-1.7,5.6-1.7,8.8c0,2.9,0.5,5.7,1.6,8.4c1.1,2.7,2.5,5,4.5,7c1.9,2,4.2,3.6,7,4.8
		c2.3,1,4.9,1.6,7.7,1.7c-0.1,1.3,0.1,2.1,0.6,2.5c0.5,0.4,1.3,0.7,2.3,0.7c1,0,2.7,0,5.1-0.2c2.4-0.2,5.2,0.8,8.3,2.9v-1.8
		c-2.7-1.8-5.2-2.7-7.4-2.6c-2.3,0-3.9,0-4.8,0c-0.9,0-1.7-0.2-2.2-0.6c-0.3-0.2-0.5-0.5-0.6-0.9c0.1,0,0.2,0,0.2,0
		c1.6,0,3.1-0.2,4.5-0.5c1.4-0.3,2.6-0.7,3.7-1.1c1.1-0.4,2.1-0.9,2.9-1.4c0.8-0.5,1.5-0.9,2-1.3l1.4-1.1c0.6-0.6,1.3-1.3,2.1-2.3
		c0.8-0.9,1.7-2.1,2.4-3.4c0.8-1.4,1.4-2.9,2-4.7c0.5-1.8,0.8-3.9,0.8-6.2c0-3.2-0.6-6.1-1.7-8.8C568.9,81.5,567.3,79.2,565.3,77.2z
		 M568.3,101.6c-1.2,2.7-2.9,5-5.3,7.1c-0.2,0.2-0.5,0.4-0.8,0.6c-0.3,0.2-0.5,0.4-0.6,0.4c-0.5,0.4-1.2,0.9-2,1.3
		c-0.8,0.4-1.7,0.9-2.7,1.2c-1,0.4-2.1,0.7-3.3,0.9c-1.2,0.2-2.4,0.3-3.7,0.3c-1,0-2.4-0.1-4-0.3c-1.6-0.2-3.3-0.7-5-1.6
		c-1.7-0.8-3.5-2-5.2-3.5c-1.7-1.6-3.2-3.6-4.5-6.2l-0.7-1.7c-0.3-0.7-0.5-1.6-0.8-2.7c-0.3-1.1-0.4-2.6-0.4-4.4
		c0-2.9,0.5-5.7,1.6-8.2c1.1-2.5,2.5-4.6,4.3-6.5c1.8-1.8,4-3.2,6.5-4.3c2.5-1,5.1-1.6,8-1.6c2.8,0,5.4,0.5,7.9,1.6
		c2.5,1,4.6,2.5,6.5,4.3c1.8,1.8,3.3,4,4.4,6.5c1.1,2.5,1.6,5.2,1.6,8.2C570.1,96.1,569.5,98.9,568.3,101.6z"/>
	<path fill="#FFFFFF" d="M605.1,99.4c0,1,0,2,0,2.9c0,0.9-0.1,1.7-0.3,2.5c-0.2,0.8-0.4,1.6-0.8,2.4c-0.4,0.8-0.9,1.6-1.5,2.4
		c-0.9,1.2-2.2,2.2-3.8,2.9c-1.6,0.7-3.2,1-4.8,1c-1.7,0-3.4-0.3-5-1c-1.6-0.7-2.8-1.6-3.8-2.9c-0.7-0.8-1.2-1.7-1.5-2.4
		c-0.4-0.8-0.6-1.6-0.8-2.4c-0.2-0.8-0.3-1.6-0.3-2.5c0-0.9,0-1.8,0-2.9V71.8h-1.7v27.6c0,1,0,2,0.1,3.2c0.1,1.1,0.2,2.3,0.6,3.5
		c0.3,1.2,0.8,2.3,1.5,3.4c0.7,1.1,1.7,2.1,2.9,3c1.1,0.8,2.3,1.4,3.7,1.9c1.3,0.5,2.7,0.7,4.2,0.7c1.5,0,2.9-0.2,4.2-0.7
		c1.4-0.5,2.6-1.1,3.7-1.9c1.3-0.9,2.2-1.9,2.9-3c0.7-1.1,1.2-2.3,1.5-3.4c0.3-1.2,0.5-2.4,0.6-3.5s0.1-2.2,0.1-3.2V71.8h-1.7V99.4z
		"/>
	<polygon fill="#FFFFFF" points="640.2,73.3 640.2,71.8 616.9,71.8 616.9,114.3 640.2,114.3 640.2,112.7 618.6,112.7 618.6,93.7 
		629.7,93.7 629.7,92.1 618.6,92.1 618.6,73.3 	"/>
	<path fill="#FFFFFF" d="M292.1,46.1c0,0,6.1-0.6,10.6-1.6c0,0,9.7-1.1,9.7-10.9c0,0-7.3,6-15.5,5.1c0,0,20.6-4.3,18-13.1
		c0,0-0.8-3.2-2.7-4.9c0,0,0.2,2.9-9.3,7.2c0,0,9.2-7.6,7.4-15.2c0,0-2.5-8-10.2-12.5c0,0,1.7,10.4-13.3,25.1c0,0-8.6,8.2-14.1,15.9
		c-0.1,0.1-0.3,0.1-0.5,0.2c-0.5-0.3-0.2-1.7-0.1-2.1c0.1,0.5,0.4,0.3,0.4,0.3s-0.3-0.1-0.2-0.3c0.4,0.1,0.6-0.5,0.6-0.5
		s-0.3,0.5-0.5,0.3c-0.2-0.2,0.5-0.8,0.7-1.3c0.1-0.4,0.2-0.8,0.2-1c0-0.3,0-0.7,0-1c0-0.3-0.2-0.8-0.2-1.2c0-0.5-0.1-0.8-0.3-1.1
		c-0.2-0.3-0.2-0.1-0.2-0.1V33c0,0-0.2-0.3-0.2-0.4c-0.1-0.1,0.2-0.2,0.2-0.2s-0.1-0.2-0.2-0.2c-0.1,0-0.2-0.1-0.2-0.1l0.1-0.2
		c0,0-0.2,0-0.3-0.1c-0.1-0.1-0.3-0.2-0.3-0.2l0.1-0.2c0,0-0.3-0.1-0.5-0.1c-0.2,0-0.3-0.1-0.3-0.1l-0.2-0.2l0.1,0.2
		c0,0-0.7-0.1-1,0c-0.3,0.1-0.4,0-0.9,0c-0.4,0.1-0.2,0.2-0.6,0.2c-0.4,0-0.2,0.3-0.2,0.3l-0.3,0.1c0,0,0.3,0,0.1,0.1
		c-0.2,0.1-0.4,0.3-0.4,0.3l0.3-0.1c0,0,0,0.1-0.3,0.3c-0.3,0.2-0.4,0.6-0.4,0.6l0.4-0.3c0,0-0.4,0.6-0.4,1c0.1-0.4,0.5-0.8,0.5-0.8
		s-0.3,0.5-0.4,0.9c-0.1,0.4-0.2,1.4-0.3,1.9c-0.1,0.5,0.3,0.8,0.3,0.8s0,0.5,0,0.8c0,0.3,0.3,0.3,0.3,0.3s0.4-0.1,0.5,0.7
		c0.1,0.8-0.2,0.6-0.5,0.7c0.4,0.2,0.3,0.1,0.7-0.2c-0.2,0.7-0.6,0.5-0.9,0.4c0.1,0,0.1,0.1,0.2,0.2c0.4,0.3,0.6-0.3,0.6-0.3
		s0-0.1,0.2,0.6c0.3,1.3,0.2,1.4,0.2,1.4s-0.2,0-0.4,0c-4.2-5.9-10.3-12.1-13-14.8c-0.1-0.1-0.2-0.2-0.3-0.3c-0.7-0.7-1.1-1-1.1-1
		C238.5,10.4,240.2,0,240.2,0c-7.7,4.5-10.2,12.5-10.2,12.5c-1.8,7.6,7.4,15.2,7.4,15.2c-9.4-4.3-9.3-7.2-9.3-7.2
		c-2,1.7-2.7,4.9-2.7,4.9c-2.7,8.7,18,13.1,18,13.1c-8.1,0.9-15.5-5.1-15.5-5.1c0,9.8,9.7,10.9,9.7,10.9c4.5,1.1,10.6,1.6,10.6,1.6
		c-4.4,1.8-12.2-0.4-12.2-0.4c0.8,3.7,4.7,4.7,4.7,4.7c4.3,1.1,9.3-0.7,9.3-0.7c-1.9,2.4-7.6,2.1-7.6,2.1c1.8,2.4,4.4,2.5,4.4,2.5
		c3.2,0.9,6.1-1.7,6.1-1.7c3.9-2.6,5.3-2.8,5.3-2.8c2.3-1,6,0.1,6.9,0.4c0.2,1.6,0.8,2.8,0.8,2.8s0,0.5,0,0.7c0,0.2,0.2,0.9,0.2,0.9
		s0,0.5,0.3,1.6c-1.1,4.8-1.2,7.7-0.7,12.3c0.5,4.5,2.1,9,2.3,9.9c0.2,0.9,0.2,2.5,0.5,3.8c0.2,1.3,0.5,5.8,0.9,7.5
		c0.3,1.7,0.9,5,0.9,5s-0.3,0.9,0.2,1.7c-0.1,1.3,0,2.4,0.3,2.8c0.3,0.5,0.2,0.8,0.1,1.5c-0.1,0.7,0.2,0.9,0.2,0.9s-0.1,0.7,0.2,1
		c0.3,0.3,0.4,0.8,0.4,0.8s0.3,0.6,0.5,0.8c0.2,0.2,0.3-0.5,0.3-0.5s0.3-0.3,0.6-0.7c0.2-0.3,0.1-0.9,0.1-0.9s0.3-0.5,0.4-0.8
		c0.1-0.3,0-0.6,0-0.9c0.2-0.3,0.1-0.6-0.1-1.4c-0.2-0.8,0.1-1.4,0.1-1.4s0.4-0.2,0.8-1c0.4-0.8-0.5-1.6-0.5-1.6s0-1.5,0.2-3.2
		c0.2-1.8,1.2-5.4,1.4-7.1c0.3-1.7,1.4-8.3,2.5-12.9c1.1-4.6,0.7-10,0.7-10s-0.1-0.4-0.5-2.6c-0.4-2.1-1.5-3.2-1.5-3.2
		s-0.2-1.1-0.3-1.7c-0.1-0.6,0.3-2.1,0.3-2.9c0-0.5,0-1.1,0-1.6c1.5-0.4,4.1-0.9,6-0.1c0,0,1.4,0.2,5.3,2.8c0,0,2.9,2.6,6.1,1.7
		c0,0,2.5-0.1,4.4-2.5c0,0-5.7,0.2-7.6-2.1c0,0,4.9,1.9,9.3,0.7c0,0,3.9-1,4.7-4.7C304.3,45.7,296.5,47.9,292.1,46.1z"/>
</g>
</svg>
