<?xml version="1.0" encoding="utf-8"?>
<!-- Generator: Adobe Illustrator 18.0.0, SVG Export Plug-In . SVG Version: 6.00 Build 0)  -->
<!DOCTYPE svg PUBLIC "-//W3C//DTD SVG 1.1//EN" "http://www.w3.org/Graphics/SVG/1.1/DTD/svg11.dtd">
<svg version="1.1" id="Layer_1" xmlns="http://www.w3.org/2000/svg" xmlns:xlink="http://www.w3.org/1999/xlink" x="0px" y="0px"
	 viewBox="0 0 220 140.7" enable-background="new 0 0 220 140.7" xml:space="preserve">
<g>
	<path fill="#FFFFFF" d="M31.3,93h2.4c1.4,0,2.5-0.3,3.2-1c0.7-0.6,1.1-1.7,1.1-3.3c0-0.6-0.1-1.1-0.4-1.6c-0.2-0.5-0.5-0.9-0.9-1.2
		c-0.2-0.1-0.4-0.3-0.6-0.4c-0.2-0.1-0.4-0.2-0.7-0.2c-0.2-0.1-0.5-0.1-0.8-0.1c-0.3,0-0.6,0-1,0h-2.9v12.3h0.5V93z M31.3,85.7h2.4
		c0.3,0,0.7,0,0.9,0c0.3,0,0.5,0.1,0.7,0.1c0.2,0.1,0.4,0.1,0.6,0.2c0.2,0.1,0.4,0.2,0.5,0.3c0.3,0.2,0.5,0.6,0.7,1
		c0.2,0.4,0.3,0.9,0.3,1.4c0,1.4-0.3,2.3-0.9,2.9c-0.6,0.6-1.6,0.9-2.9,0.9h-2.4V85.7z"/>
	<path fill="#FFFFFF" d="M62.7,87.1c-0.2-0.3-0.3-0.5-0.6-0.8c-0.2-0.2-0.4-0.4-0.7-0.5c-0.2-0.1-0.3-0.2-0.5-0.2
		c-0.2-0.1-0.4-0.1-0.6-0.2c-0.2,0-0.5-0.1-0.9-0.1c-0.3,0-0.8,0-1.2,0h-2.8v12.3h0.5v-5.1v-6.8h2.3c0.4,0,0.7,0,1,0
		c0.3,0,0.6,0,0.8,0.1c0.2,0,0.5,0.1,0.7,0.1c0.2,0.1,0.4,0.2,0.6,0.3c0.5,0.3,0.8,0.7,1.1,1.3c0.2,0.5,0.4,1.1,0.4,1.6
		c0,0.5-0.1,0.9-0.2,1.4c-0.2,0.4-0.4,0.8-0.8,1.3c-0.2,0.2-0.4,0.3-0.6,0.4c-0.2,0.1-0.4,0.2-0.6,0.2c-0.2,0.1-0.4,0.1-0.7,0.1
		c-0.2,0-0.5,0-0.8,0h-3.1l5.9,5.1h0.6L57.1,93l2.5,0c0.7,0,1.2-0.1,1.7-0.4c0.5-0.3,0.8-0.6,1.1-0.9c0.3-0.4,0.5-0.8,0.6-1.2
		c0.1-0.4,0.2-0.9,0.2-1.2v-0.1c0-0.4-0.1-0.7-0.2-1C63,87.7,62.9,87.4,62.7,87.1z"/>
	<path fill="#FFFFFF" d="M91.6,86.9c-0.6-0.6-1.3-1-2-1.3c-0.8-0.3-1.6-0.5-2.5-0.5c-0.9,0-1.7,0.2-2.5,0.5c-0.8,0.3-1.4,0.8-2,1.3
		c-0.6,0.6-1,1.2-1.4,2c-0.3,0.8-0.5,1.6-0.5,2.6s0.2,1.8,0.5,2.6c0.3,0.8,0.8,1.5,1.4,2c0.6,0.6,1.3,1,2,1.3
		c0.8,0.3,1.6,0.5,2.5,0.5c0.9,0,1.7-0.2,2.5-0.5c0.8-0.3,1.5-0.8,2-1.3c0.6-0.6,1-1.2,1.4-2c0.3-0.8,0.5-1.6,0.5-2.6
		s-0.2-1.8-0.5-2.6C92.7,88.1,92.2,87.4,91.6,86.9z M92.6,93.8c-0.3,0.7-0.7,1.3-1.3,1.9c-0.5,0.5-1.2,0.9-1.9,1.2
		c-0.7,0.3-1.5,0.5-2.3,0.5c-0.8,0-1.6-0.2-2.3-0.5c-0.7-0.3-1.3-0.7-1.9-1.2c-0.5-0.5-1-1.2-1.3-1.9c-0.3-0.7-0.5-1.5-0.5-2.4
		c0-0.9,0.2-1.6,0.5-2.4c0.3-0.7,0.7-1.3,1.3-1.9c0.5-0.5,1.2-0.9,1.9-1.2c0.7-0.3,1.5-0.5,2.3-0.5c0.8,0,1.6,0.2,2.3,0.5
		c0.7,0.3,1.3,0.7,1.9,1.2c0.5,0.5,1,1.2,1.3,1.9c0.3,0.7,0.5,1.5,0.5,2.4C93,92.3,92.9,93.1,92.6,93.8z"/>
	<path fill="#FFFFFF" d="M112.8,97.7c0.4-0.1,0.7-0.3,0.9-0.5c0.3-0.2,0.5-0.4,0.6-0.6c0.1-0.2,0.2-0.4,0.3-0.6
		c0.2-0.4,0.2-0.7,0.3-1.1c0-0.4,0-0.7,0-1v-8.8h-0.5v8.8c0,0.4,0,0.7-0.1,1c0,0.3-0.1,0.6-0.2,0.9c-0.1,0.3-0.4,0.7-0.8,1
		c-0.4,0.3-1.6,0.5-3.4,0.4h0v0.5C111.5,97.9,112.5,97.8,112.8,97.7z"/>
	<polygon fill="#FFFFFF" points="132.9,97.6 139.7,97.6 139.7,97.2 133.4,97.2 133.4,91.6 136.6,91.6 136.6,91.2 133.4,91.2 
		133.4,85.7 139.7,85.7 139.7,85.3 132.9,85.3 	"/>
	<path fill="#FFFFFF" d="M158.6,96c0.6,0.6,1.3,1,2,1.3c0.8,0.3,1.6,0.5,2.5,0.5c0.4,0,0.7,0,1.1-0.1c0.4-0.1,0.7-0.2,1-0.4v-0.5
		c-0.3,0.2-0.6,0.4-0.9,0.4c-0.3,0.1-0.7,0.1-1.1,0.1c-0.8,0-1.6-0.2-2.3-0.5c-0.7-0.3-1.3-0.7-1.9-1.2c-0.5-0.5-1-1.2-1.3-1.9
		c-0.3-0.7-0.5-1.5-0.5-2.4c0-0.9,0.2-1.6,0.5-2.4c0.3-0.7,0.7-1.3,1.3-1.9c0.5-0.5,1.2-0.9,1.9-1.2c0.7-0.3,1.5-0.5,2.3-0.5
		c0.4,0,0.8,0,1.1,0.1c0.3,0.1,0.7,0.3,0.9,0.6v-0.6c-0.2-0.2-0.5-0.3-0.9-0.4c-0.4-0.1-0.8-0.1-1.2-0.1c-0.9,0-1.7,0.2-2.5,0.5
		c-0.8,0.3-1.4,0.8-2,1.3c-0.6,0.6-1,1.2-1.4,2c-0.3,0.8-0.5,1.6-0.5,2.6s0.2,1.8,0.5,2.6C157.5,94.8,158,95.5,158.6,96z"/>
	<polygon fill="#FFFFFF" points="185.3,97.6 185.8,97.6 185.8,85.7 189.2,85.7 189.2,85.3 182,85.3 182,85.7 185.3,85.7 	"/>
	<path fill="#FFFFFF" d="M18.7,111.4c-1.2-1.2-2.7-2.1-4.5-2.8c-1.8-0.6-3.7-1-5.9-1H0v28.2h8.3c2.2,0,4.2-0.3,5.9-1
		c1.8-0.6,3.2-1.6,4.5-2.8c1.2-1.2,2.2-2.7,2.8-4.4c0.6-1.8,1-3.7,1-5.9c0-2.2-0.3-4.2-1-5.9C20.9,114.1,19.9,112.6,18.7,111.4z
		 M19.2,126.8c-0.5,1.4-1.3,2.6-2.3,3.6c-1,1-2.2,1.7-3.7,2.3c-1.4,0.5-3.1,0.8-4.9,0.8H2.6v-23.3h5.7c1.8,0,3.5,0.3,4.9,0.8
		c1.4,0.5,2.7,1.3,3.7,2.3c1,1,1.8,2.2,2.3,3.7c0.5,1.5,0.8,3.1,0.8,4.9C20,123.7,19.7,125.4,19.2,126.8z"/>
	<path fill="#FFFFFF" d="M53,111.4c-1.3-1.3-2.9-2.3-4.7-3c-1.8-0.7-3.7-1.1-5.7-1.1c-2,0-3.9,0.4-5.7,1.1c-1.8,0.7-3.3,1.7-4.6,3
		c-1.3,1.3-2.4,2.8-3.1,4.6c-0.8,1.8-1.1,3.7-1.1,5.8c0,2.1,0.4,4,1.1,5.8c0.8,1.8,1.8,3.3,3.1,4.6c1.3,1.3,2.9,2.3,4.6,3
		c1.8,0.7,3.7,1.1,5.7,1.1c2,0,3.9-0.4,5.7-1.1c1.8-0.7,3.3-1.7,4.7-3c1.3-1.3,2.4-2.8,3.1-4.6c0.8-1.8,1.1-3.7,1.1-5.8
		c0-2.1-0.4-4-1.1-5.8C55.4,114.2,54.4,112.7,53,111.4z M53.8,126.7c-0.6,1.5-1.5,2.8-2.6,3.8c-1.1,1.1-2.4,1.9-3.8,2.6
		c-1.5,0.6-3,0.9-4.7,0.9c-1.7,0-3.2-0.3-4.7-0.9c-1.5-0.6-2.7-1.5-3.8-2.6c-1.1-1.1-1.9-2.4-2.6-3.8c-0.6-1.5-0.9-3.1-0.9-4.8
		c0-1.8,0.3-3.4,0.9-4.8c0.6-1.5,1.5-2.8,2.6-3.8c1.1-1.1,2.4-1.9,3.8-2.6c1.5-0.6,3-0.9,4.7-0.9c1.7,0,3.2,0.3,4.7,0.9
		c1.5,0.6,2.7,1.5,3.8,2.6c1.1,1.1,2,2.4,2.6,3.8c0.6,1.5,1,3.1,1,4.8C54.8,123.6,54.4,125.2,53.8,126.7z"/>
	<path fill="#FFFFFF" d="M84.4,119.8c-2,4-4,8.1-5.9,12.1l-11.9-24.1h-2.9v28.2h2.5v-23.3l11.5,23.3h1.6c1.9-3.8,3.8-7.7,5.7-11.6
		c1.9-3.9,3.8-7.8,5.7-11.7l0.1,23.3h2.5v-28.2h-2.9C88.3,111.7,86.3,115.7,84.4,119.8z"/>
	<rect x="99.6" y="107.7" fill="#FFFFFF" width="2.6" height="28.2"/>
	<polygon fill="#FFFFFF" points="128.2,131.5 111,107.7 108.2,107.7 108.2,135.9 110.8,135.9 110.8,111.7 128.3,135.9 130.8,135.9 
		130.8,107.7 128.2,107.7 	"/>
	<rect x="137" y="107.7" fill="#FFFFFF" width="2.6" height="28.2"/>
	<path fill="#FFFFFF" d="M169.9,111.4c-1.3-1.3-2.9-2.3-4.6-3c-1.8-0.7-3.7-1.1-5.7-1.1c-2,0-3.9,0.4-5.7,1.1
		c-1.8,0.7-3.3,1.7-4.6,3c-1.3,1.3-2.4,2.8-3.1,4.6c-0.8,1.8-1.1,3.7-1.1,5.8c0,1.9,0.3,3.8,1,5.5c0.7,1.8,1.7,3.3,2.9,4.6
		c1.3,1.3,2.8,2.4,4.6,3.2c1.3,0.6,2.8,0.9,4.3,1.1c-0.1,0.7,0,1.2,0.2,1.5c0.3,0.5,0.8,0.8,1.5,0.9c0.7,0.1,1.4,0.1,2.3-0.1
		c0.9-0.2,1.7-0.3,2.4-0.3c0.7,0,1.4,0.2,2.2,0.6c0.8,0.4,1.8,1,3.1,1.8v-2.9c-2.1-1.3-3.9-2-5.4-2c-0.4,0-0.9,0.1-1.4,0.4
		c-0.5,0.2-1,0.4-1.4,0.4c-0.4,0.1-0.7,0-0.9-0.3c0.7,0,1.5-0.1,2.1-0.3c0.9-0.2,1.7-0.5,2.5-0.7c0.7-0.3,1.4-0.6,1.9-0.9
		c0.5-0.3,1-0.6,1.4-0.9l0.9-0.7c0.4-0.4,0.9-0.9,1.4-1.5c0.6-0.6,1.1-1.4,1.6-2.3c0.5-0.9,0.9-1.9,1.3-3.1c0.4-1.2,0.6-2.6,0.6-4.1
		c0-2.1-0.4-4-1.1-5.8C172.3,114.2,171.2,112.7,169.9,111.4z M170.6,126.9c-0.7,1.6-1.7,3-3.1,4.2c-0.1,0.1-0.2,0.2-0.4,0.3
		c-0.2,0.1-0.3,0.2-0.3,0.2c-0.3,0.3-0.7,0.5-1.2,0.8c-0.5,0.3-1,0.5-1.6,0.8c-0.6,0.2-1.3,0.4-2,0.6c-0.7,0.1-1.4,0.2-2.2,0.2
		c-0.6,0-1.4-0.1-2.3-0.2c-1-0.1-1.9-0.5-3-0.9c-1-0.5-2.1-1.2-3.1-2.1c-1-0.9-1.9-2.1-2.7-3.7v0l-0.4-1.1l0,0
		c-0.2-0.4-0.3-1-0.5-1.6c-0.2-0.7-0.2-1.5-0.2-2.6c0-1.8,0.3-3.4,0.9-4.8c0.6-1.5,1.5-2.8,2.6-3.8c1.1-1.1,2.4-1.9,3.8-2.6
		c1.5-0.6,3-0.9,4.7-0.9c1.7,0,3.2,0.3,4.7,0.9c1.5,0.6,2.7,1.5,3.8,2.6c1.1,1.1,2,2.4,2.6,3.8c0.6,1.5,1,3.1,1,4.8
		C171.6,123.6,171.3,125.3,170.6,126.9z"/>
	<path fill="#FFFFFF" d="M195.3,125.8c0,0.6,0,1.2,0,1.7c0,0.5-0.1,1-0.2,1.5c-0.1,0.5-0.3,0.9-0.5,1.4c-0.2,0.5-0.5,0.9-0.9,1.4
		c-0.5,0.7-1.2,1.2-2.1,1.6c-0.9,0.4-1.8,0.6-2.7,0.6c-1,0-1.9-0.2-2.8-0.6c-0.9-0.4-1.6-0.9-2.1-1.6c-0.4-0.5-0.7-1-0.9-1.4
		c-0.2-0.5-0.4-0.9-0.5-1.4c-0.1-0.5-0.2-1-0.2-1.5c0-0.5,0-1.1,0-1.7v-18H180v18c0,0.6,0,1.3,0.1,2.1c0,0.8,0.2,1.6,0.4,2.3
		c0.2,0.8,0.6,1.6,1,2.3c0.5,0.8,1.1,1.4,2,2.1c0.8,0.5,1.6,0.9,2.5,1.3c0.9,0.3,1.8,0.5,2.8,0.5c1,0,1.9-0.2,2.9-0.5
		c0.9-0.3,1.8-0.7,2.6-1.3c0.9-0.6,1.5-1.3,2-2.1c0.5-0.8,0.8-1.5,1.1-2.3c0.2-0.8,0.4-1.6,0.4-2.3c0-0.8,0.1-1.5,0.1-2.1v-18h-2.6
		V125.8z"/>
	<polygon fill="#FFFFFF" points="220,110.2 220,107.7 203.9,107.7 203.9,135.9 220,135.9 220,133.5 206.4,133.5 206.4,122.9 
		213.4,122.9 213.4,120.5 206.4,120.5 206.4,110.2 	"/>
	<path fill="#FFFFFF" d="M139.7,14.6c0,0,0.1,2-6.5,5.1c0,0,6.5-5.4,5.2-10.8c0,0-1.8-5.7-7.2-8.9c0,0,1.2,7.4-9.4,17.8
		c0,0-6.1,5.8-10,11.2c-0.1,0-0.2,0.1-0.3,0.1c-0.4-0.2-0.1-1.2,0-1.5c0.1,0.3,0.3,0.2,0.3,0.2s-0.2,0-0.2-0.2
		c0.3,0.1,0.4-0.4,0.4-0.4s-0.2,0.4-0.4,0.2c-0.2-0.1,0.4-0.6,0.5-0.9c0.1-0.3,0.2-0.5,0.2-0.7c0-0.2,0-0.5,0-0.7
		c0-0.2-0.1-0.5-0.1-0.9c0-0.3-0.1-0.5-0.2-0.8c-0.1-0.2-0.2-0.1-0.2-0.1v-0.2c0,0-0.1-0.2-0.2-0.3c-0.1-0.1,0.2-0.2,0.2-0.2
		s-0.1-0.1-0.2-0.1c-0.1,0-0.2-0.1-0.2-0.1l0.1-0.1c0,0-0.1,0-0.2-0.1c-0.1-0.1-0.2-0.1-0.2-0.1l0-0.1c0,0-0.2-0.1-0.4-0.1
		c-0.1,0-0.2-0.1-0.2-0.1l-0.1-0.1l0,0.1c0,0-0.5-0.1-0.7,0c-0.2,0.1-0.3,0-0.6,0c-0.3,0-0.2,0.2-0.4,0.2c-0.3,0-0.1,0.2-0.1,0.2
		l-0.2,0.1c0,0,0.2,0,0.1,0.1c-0.1,0-0.3,0.2-0.3,0.2l0.2-0.1c0,0,0,0.1-0.2,0.2c-0.2,0.1-0.3,0.4-0.3,0.4l0.3-0.2
		c0,0-0.3,0.4-0.3,0.7c0.1-0.3,0.3-0.5,0.3-0.5s-0.2,0.3-0.3,0.6c-0.1,0.3-0.1,1-0.2,1.4c-0.1,0.4,0.2,0.6,0.2,0.6s0,0.4,0,0.6
		c0,0.2,0.2,0.2,0.2,0.2s0.3-0.1,0.3,0.5c0.1,0.6-0.1,0.4-0.3,0.5c0.3,0.1,0.2,0.1,0.5-0.1c-0.1,0.5-0.4,0.4-0.6,0.2
		c0,0,0.1,0.1,0.2,0.1c0.3,0.2,0.4-0.2,0.4-0.2s0,0,0.1,0.4c0.2,0.9,0.1,1,0.1,1s-0.1,0-0.3,0c-3-4.2-7.3-8.6-9.2-10.4
		c0-0.1-0.1-0.1-0.2-0.2c-0.5-0.5-0.7-0.7-0.7-0.7C87.6,7.4,88.9,0,88.9,0c-5.5,3.2-7.2,8.9-7.2,8.9c-1.3,5.4,5.2,10.8,5.2,10.8
		c-6.7-3-6.5-5.1-6.5-5.1c-1.4,1.2-1.9,3.5-1.9,3.5C76.5,24.2,91,27.3,91,27.3c-5.7,0.6-10.9-3.6-10.9-3.6c0,7,6.9,7.7,6.9,7.7
		c3.2,0.7,7.5,1.2,7.5,1.2c-3.1,1.2-8.6-0.3-8.6-0.3c0.6,2.6,3.3,3.3,3.3,3.3c3.1,0.8,6.6-0.5,6.6-0.5c-1.3,1.7-5.4,1.5-5.4,1.5
		c1.3,1.7,3.1,1.8,3.1,1.8c2.3,0.6,4.3-1.2,4.3-1.2c2.8-1.8,3.7-2,3.7-2c1.7-0.7,4.2,0,4.9,0.3c0.1,1.1,0.5,2,0.5,2s0,0.3,0,0.5
		c0,0.1,0.1,0.7,0.1,0.7s0,0.3,0.2,1.1c-0.8,3.4-0.9,5.5-0.5,8.7c0.3,3.2,1.5,6.4,1.6,7c0.1,0.6,0.2,1.7,0.3,2.7
		c0.2,0.9,0.4,4.1,0.6,5.3c0.2,1.2,0.7,3.5,0.7,3.5s-0.2,0.7,0.1,1.2c-0.1,0.9,0,1.7,0.2,2c0.2,0.3,0.1,0.6,0.1,1.1
		c0,0.5,0.2,0.6,0.2,0.6s-0.1,0.5,0.2,0.7c0.2,0.2,0.3,0.6,0.3,0.6s0.2,0.4,0.4,0.6c0.1,0.1,0.2-0.3,0.2-0.3s0.2-0.2,0.4-0.5
		c0.1-0.2,0-0.6,0-0.6s0.2-0.3,0.2-0.6c0.1-0.2,0-0.4,0-0.6c0.1-0.2,0.1-0.4-0.1-1c-0.1-0.5,0-1,0-1s0.3-0.1,0.6-0.7
		c0.3-0.6-0.4-1.1-0.4-1.1s0-1,0.1-2.3c0.1-1.3,0.8-3.8,1-5.1c0.2-1.2,1-5.8,1.8-9.1c0.8-3.3,0.5-7.1,0.5-7.1s-0.1-0.3-0.3-1.8
		c-0.3-1.5-1.1-2.3-1.1-2.3s-0.1-0.8-0.2-1.2c-0.1-0.4,0.2-1.5,0.2-2.1c0-0.4,0-0.8,0-1.2c1.1-0.3,2.9-0.7,4.2-0.1c0,0,1,0.1,3.7,2
		c0,0,2.1,1.8,4.3,1.2c0,0,1.8-0.1,3.1-1.8c0,0-4,0.2-5.4-1.5c0,0,3.5,1.3,6.6,0.5c0,0,2.8-0.7,3.3-3.3c0,0-5.5,1.5-8.6,0.3
		c0,0,4.3-0.4,7.5-1.2c0,0,6.9-0.8,6.9-7.7c0,0-5.2,4.2-10.9,3.6c0,0,14.6-3.1,12.7-9.2C141.7,18.1,141.1,15.8,139.7,14.6z"/>
</g>
</svg>
