<?xml version="1.0" encoding="utf-8"?>
<!-- Generator: Adobe Illustrator 18.0.0, SVG Export Plug-In . SVG Version: 6.00 Build 0)  -->
<!DOCTYPE svg PUBLIC "-//W3C//DTD SVG 1.1//EN" "http://www.w3.org/Graphics/SVG/1.1/DTD/svg11.dtd">
<svg version="1.1" id="Icons" xmlns="http://www.w3.org/2000/svg" xmlns:xlink="http://www.w3.org/1999/xlink" x="0px" y="0px"
	 viewBox="-255.5 -635.5 32 24" enable-background="new -255.5 -635.5 32 24" xml:space="preserve">
<path fill="#777777" d="M-231.5-635.5c-3.1,0-5.9,1.2-8,3.1c-2.1-1.9-4.9-3.1-8-3.1s-5.9,1.2-8,3.1v0.5v2.4v12v2.5v0.4
	c0,0,0,0,0.1,0.1c0.5,0.5,1.1,0.9,1.6,1.2c0.6-0.5,1.2-0.9,1.9-1.2c1.3-0.6,2.8-1,4.4-1c1.6,0,3,0.4,4.4,1c0.7,0.3,1.3,0.7,1.9,1.2
	c0.1,0.1,0.2,0.2,0.3,0.3c0.5,0.4,1,0.9,1.4,1.5c0.4-0.5,0.9-1,1.4-1.5c0.1-0.1,0.2-0.2,0.3-0.3c0.6-0.5,1.2-0.9,1.9-1.2
	c1.3-0.6,2.8-1,4.4-1c1.6,0,3,0.4,4.4,1c0.7,0.3,1.3,0.7,1.9,1.2c0.6-0.4,1.1-0.8,1.6-1.2c0,0,0,0,0.1-0.1v-0.4v-2.5v-12v-2.4v-0.5
	C-225.6-634.3-228.4-635.5-231.5-635.5z M-247.5-617.5c-2.2,0-4.2,0.6-6,1.6v-15.6c1.7-1.3,3.7-2,6-2c2.3,0,4.3,0.7,6,2v15.6
	C-243.3-616.9-245.3-617.5-247.5-617.5z M-231.5-617.5c-2.2,0-4.2,0.6-6,1.6v-15.6c1.7-1.3,3.7-2,6-2c2.3,0,4.3,0.7,6,2v15.6
	C-227.3-616.9-229.3-617.5-231.5-617.5z"/>
</svg>
